<svg xmlns="http://www.w3.org/2000/svg" width="2050" height="1040" viewBox="0 0 2050 1040">
  <defs>
    <style>
      .title { font: 700 34px Arial, sans-serif; fill: #0f172a; }
      .lane { font: 700 22px Arial, sans-serif; fill: #334155; }
      .label { font: 600 19px Arial, sans-serif; fill: #0f172a; text-anchor: middle; }
      .small { font: 500 15px Arial, sans-serif; fill: #334155; text-anchor: middle; }
      .box { fill: #f8fafc; stroke: #334155; stroke-width: 2.5; rx: 12; ry: 12; }
      .accent { fill: #e2e8f0; stroke: #0f172a; stroke-width: 2.5; rx: 12; ry: 12; }
      .flow { stroke: #334155; stroke-width: 3; fill: none; marker-end: url(#arrowhead); }
      .flow-dashed { stroke: #64748b; stroke-width: 2.5; stroke-dasharray: 8 6; fill: none; marker-end: url(#arrowhead-light); }
      .divider { stroke: #cbd5e1; stroke-width: 2; stroke-dasharray: 10 8; }
    </style>
    <marker id="arrowhead" markerWidth="10" markerHeight="7" refX="9" refY="3.5" orient="auto">
      <polygon points="0 0, 10 3.5, 0 7" fill="#334155"/>
    </marker>
    <marker id="arrowhead-light" markerWidth="10" markerHeight="7" refX="9" refY="3.5" orient="auto">
      <polygon points="0 0, 10 3.5, 0 7" fill="#64748b"/>
    </marker>
  </defs>

  <text x="70" y="55" class="title">LLM Checklist Completion Pipeline (Flat Root Layout)</text>

  <rect x="70" y="90" width="430" height="170" class="accent"/>
  <text x="285" y="130" class="label">Makefile orchestration</text>
  <text x="285" y="168" class="small">run: extract analyze analyze-viet</text>
  <text x="285" y="194" class="small">aggregate aggregate-viet</text>
  <text x="285" y="232" class="small">Single command: make run</text>

  <line x1="70" y1="565" x2="1980" y2="565" class="divider"/>
  <text x="980" y="225" class="lane">English lane</text>
  <text x="980" y="605" class="lane">Vietnamese lane</text>

  <rect x="70" y="430" width="500" height="92" class="box"/>
  <text x="320" y="468" class="label" style="font-size:17px;">data/&lt;single_source_file&gt;</text>
  <text x="320" y="495" class="label" style="font-size:17px;">(.csv, .xlsx, or .xls)</text>

  <rect x="620" y="430" width="320" height="92" class="accent"/>
  <text x="780" y="486" class="label">extract_transcript_text.py</text>

  <rect x="1000" y="250" width="270" height="82" class="box"/>
  <text x="1135" y="300" class="label">transcripts_text_eng/</text>

  <rect x="1320" y="250" width="300" height="82" class="accent"/>
  <text x="1470" y="300" class="label">analyze_transcripts.py</text>

  <rect x="1660" y="250" width="320" height="82" class="box"/>
  <text x="1820" y="300" class="label">results/&lt;model&gt;</text>

  <rect x="1660" y="360" width="320" height="82" class="accent"/>
  <text x="1820" y="410" class="label">aggregate_results.py</text>

  <rect x="1660" y="470" width="320" height="82" class="box"/>
  <text x="1820" y="520" class="label">aggregated_results.xlsx</text>

  <rect x="1000" y="620" width="270" height="82" class="box"/>
  <text x="1135" y="670" class="label">transcripts_text_viet/</text>

  <rect x="1320" y="620" width="300" height="82" class="accent"/>
  <text x="1470" y="670" class="label">analyze_transcripts_viet.py</text>

  <rect x="1660" y="620" width="320" height="82" class="box"/>
  <text x="1820" y="670" class="label">results_viet/&lt;model&gt;</text>

  <rect x="1660" y="730" width="320" height="82" class="accent"/>
  <text x="1820" y="780" class="label">aggregate_results_viet.py</text>

  <rect x="1660" y="840" width="320" height="82" class="box"/>
  <text x="1820" y="890" class="label">aggregated_results_viet.xlsx</text>

  <line x1="570" y1="476" x2="620" y2="476" class="flow"/>

  <polyline points="940,455 970,455 970,291 1000,291" class="flow"/>
  <polyline points="940,497 970,497 970,661 1000,661" class="flow"/>

  <line x1="1270" y1="291" x2="1320" y2="291" class="flow"/>
  <line x1="1620" y1="291" x2="1660" y2="291" class="flow"/>
  <line x1="1820" y1="332" x2="1820" y2="360" class="flow"/>
  <line x1="1820" y1="442" x2="1820" y2="470" class="flow"/>

  <line x1="1270" y1="661" x2="1320" y2="661" class="flow"/>
  <line x1="1620" y1="661" x2="1660" y2="661" class="flow"/>
  <line x1="1820" y1="702" x2="1820" y2="730" class="flow"/>
  <line x1="1820" y1="812" x2="1820" y2="840" class="flow"/>

  <polyline points="285,260 285,390 780,390 780,430" class="flow-dashed"/>
</svg>
