<svg xmlns="http://www.w3.org/2000/svg" width="1400" height="760" viewBox="0 0 1400 760">
  <defs>
    <style>
      .title { font: 700 24px Arial, sans-serif; fill: #0f172a; }
      .label { font: 600 14px Arial, sans-serif; fill: #0f172a; }
      .small { font: 500 12px Arial, sans-serif; fill: #334155; }
      .box { fill: #f8fafc; stroke: #334155; stroke-width: 2; rx: 10; ry: 10; }
      .accent { fill: #e2e8f0; stroke: #0f172a; stroke-width: 2; rx: 10; ry: 10; }
      .arrow { stroke: #334155; stroke-width: 2.5; fill: none; marker-end: url(#arrowhead); }
      .divider { stroke: #cbd5e1; stroke-width: 1.5; stroke-dasharray: 8 6; }
    </style>
    <marker id="arrowhead" markerWidth="10" markerHeight="7" refX="9" refY="3.5" orient="auto">
      <polygon points="0 0, 10 3.5, 0 7" fill="#334155" />
    </marker>
  </defs>

  <text x="40" y="45" class="title">LLM Checklist Completion Pipeline (Flat Root Layout)</text>

  <rect x="40" y="90" width="330" height="150" class="accent" />
  <text x="65" y="125" class="label">Makefile orchestration</text>
  <text x="65" y="155" class="small">run: extract analyze analyze-viet</text>
  <text x="65" y="178" class="small">aggregate aggregate-viet</text>
  <text x="65" y="213" class="small">Single command: make run</text>

  <line x1="40" y1="285" x2="1360" y2="285" class="divider" />
  <text x="40" y="315" class="small">English lane</text>
  <text x="40" y="560" class="small">Vietnamese lane</text>

  <rect x="50" y="340" width="360" height="64" class="box" />
  <text x="70" y="378" class="label">data/llm-data-baseline-1125-translated.xlsx - data.csv</text>

  <rect x="460" y="340" width="280" height="64" class="accent" />
  <text x="500" y="378" class="label">extract_transcript_text.py</text>

  <rect x="790" y="315" width="230" height="56" class="box" />
  <text x="830" y="349" class="label">transcripts_text_eng/</text>

  <rect x="1060" y="315" width="260" height="56" class="accent" />
  <text x="1100" y="349" class="label">analyze_transcripts.py</text>

  <rect x="1060" y="415" width="260" height="56" class="box" />
  <text x="1130" y="449" class="label">results/&lt;model&gt;</text>

  <rect x="790" y="415" width="230" height="56" class="accent" />
  <text x="820" y="449" class="label">aggregate_results.py</text>

  <rect x="510" y="415" width="230" height="56" class="box" />
  <text x="540" y="449" class="label">aggregated_results.xlsx</text>

  <rect x="790" y="560" width="230" height="56" class="box" />
  <text x="826" y="594" class="label">transcripts_text_viet/</text>

  <rect x="1060" y="560" width="260" height="56" class="accent" />
  <text x="1080" y="594" class="label">analyze_transcripts_viet.py</text>

  <rect x="1060" y="660" width="260" height="56" class="box" />
  <text x="1103" y="694" class="label">results_viet/&lt;model&gt;</text>

  <rect x="790" y="660" width="230" height="56" class="accent" />
  <text x="804" y="694" class="label">aggregate_results_viet.py</text>

  <rect x="510" y="660" width="230" height="56" class="box" />
  <text x="520" y="694" class="label">aggregated_results_viet.xlsx</text>

  <line x1="410" y1="372" x2="460" y2="372" class="arrow" />
  <line x1="740" y1="372" x2="790" y2="343" class="arrow" />
  <line x1="1020" y1="343" x2="1060" y2="343" class="arrow" />
  <line x1="1190" y1="371" x2="1190" y2="415" class="arrow" />
  <line x1="1060" y1="443" x2="1020" y2="443" class="arrow" />
  <line x1="790" y1="443" x2="740" y2="443" class="arrow" />

  <line x1="740" y1="372" x2="790" y2="588" class="arrow" />
  <line x1="1020" y1="588" x2="1060" y2="588" class="arrow" />
  <line x1="1190" y1="616" x2="1190" y2="660" class="arrow" />
  <line x1="1060" y1="688" x2="1020" y2="688" class="arrow" />
  <line x1="790" y1="688" x2="740" y2="688" class="arrow" />
</svg>
